#!OML:ASF I:\Actors\actors\Patient Classification 2\Patient 1\Session 1\actor1.ASF
:FULLY-SPECIFIED
:DEGREES
947
root 0.499139 18.7673 5.32907 7.19323 0.90769 -0.990143
lowerback 24.369 -0.371481 1.55761
upperback 8.80416 -0.0264484 1.54856
thorax -3.85973 -0.0139836 0.789923
lowerneck -17.7854 -2.06197 -0.884334
upperneck 15.8583 -2.73955 0.842661
head 7.84993 -1.2675 0.100748
rclavicle -4.17448e-015 1.74931e-014
rhumerus -6.82888 57.5016 -102.877
rradius 134.105
rwrist 4.44209
rhand -42.5038 -47.0412
rfingers 7.12502
rthumb -15.3805 -76.4491
lclavicle -4.17448e-015 1.74931e-014
lhumerus -17.7481 -57.0771 113.795
lradius 132.808
lwrist 12.5898
lhand -27.8005 302.099
lfingers 7.12502
lthumb -1.19321 -27.9242
rfemur -0.474347 0.232826 10.843
rtibia 7.95139e-016
rfoot -14.6449 -15.2963
rtoes -8.83286
lfemur -19.0172 2.27188 -16.9867
ltibia 29.6389
lfoot -17.0683 2.70792
ltoes -55.3678
948
root 0.453964 18.766 5.32527 7.12611 0.906971 -0.844635
lowerback 24.5987 -0.41351 1.36733
upperback 8.7661 -0.115599 1.55969
thorax -4.01378 -0.0605886 0.936734
lowerneck -18.1257 -2.1135 -1.0878
upperneck 16.2348 -2.7954 1.03363
head 8.04121 -1.2836 0.185257
rclavicle -3.97569e-015 -1.19271e-015
rhumerus -8.83894 58.093 -104.596
rradius 134.426
rwrist 5.41895
rhand -42.5205 -47.2344
rfingers 7.12502
rthumb -15.3965 -76.641
lclavicle -3.97569e-015 -1.19271e-015
lhumerus -18.192 -56.9914 114.977
lradius 133.018
lwrist 12.3049
lhand -27.0277 301.846
lfingers 7.12502
lthumb -0.446799 -28.1749
rfemur -0.396522 0.237444 10.8661
rtibia -7.95139e-016
rfoot -14.803 -15.2903
rtoes -9.1617
lfemur -18.8605 2.21687 -16.9816
ltibia 29.4639
lfoot -17.0305 2.74798
ltoes -55.4951
949
root 0.402566 18.7608 5.32259 7.06994 0.900187 -0.683334
lowerback 24.4197 -0.471298 1.14032
upperback 8.91363 -0.248804 1.54386
thorax -3.76288 -0.127981 1.08283
lowerneck -18.3084 -2.14217 -1.2499
upperneck 16.3815 -2.82129 1.18458
head 8.12736 -1.28882 0.256342
rclavicle 9.93923e-016 -1.19271e-015
rhumerus -10.2623 58.5753 -105.881
rradius 135.031
rwrist 5.39917
rhand -42.2293 -46.9233
rfingers 7.12502
rthumb -15.116 -76.3513
lclavicle 9.93923e-016 -1.19271e-015
lhumerus -18.5059 -57.0648 115.694
lradius 133.313
lwrist 11.8674
lhand -26.4038 301.574
lfingers 7.12502
lthumb 0.155764 -28.446
rfemur -0.342271 0.245564 10.9051
rtibia 4.77083e-015
rfoot -15.0425 -15.3355
rtoes -9.45197
lfemur -18.7482 2.13759 -16.9754
ltibia 29.3614
lfoot -17.032 2.84832
ltoes -55.6413
950
root 0.348218 18.7531 5.31837 6.99332 0.894653 -0.548644
lowerback 24.4502 -0.665624 0.762563
upperback 9.02729 -0.57763 1.6434
thorax -3.64467 -0.296428 1.49402
lowerneck -18.7838 -2.01814 -1.66649
upperneck 16.6994 -2.53643 1.19031
head 8.31944 -1.17704 0.355887
rclavicle 4.17448e-015 -1.33186e-014
rhumerus -11.4044 59.2565 -106.837
rradius 135.544
rwrist 4.98717
rhand -41.8849 -46.1453
rfingers 7.12502
rthumb -14.7843 -75.598
lclavicle 4.17448e-015 -1.33186e-014
lhumerus -18.8642 -56.7635 116.204
lradius 133.597
lwrist 11.7278
lhand -26.0581 302.471
lfingers 7.12502
lthumb 0.489632 -27.5497
rfemur -0.282322 0.258721 10.9831
rtibia 4.77083e-015
rfoot -15.3252 -15.3948
rtoes -9.63585
lfemur -18.657 1.9895 -16.9259
ltibia 29.3272
lfoot -17.0679 2.98574
ltoes -55.7705
951
root 0.290351 18.7459 5.3101 6.95086 0.876234 -0.4752
lowerback 24.2714 -0.798734 0.42744
upperback 9.32941 -0.822063 1.80012
thorax -3.2133 -0.427401 1.91333
lowerneck -19.4454 -1.95962 -2.10254
upperneck 16.8614 -2.30723 1.11939
head 8.49106 -1.10193 0.426312
rclavicle -1.98785e-016 1.05356e-014
rhumerus -11.3714 59.901 -106.595
rradius 135.707
rwrist 4.95758
rhand -41.836 -45.6713
rfingers 7.12502
rthumb -14.7371 -75.1274
lclavicle -1.98785e-016 1.05356e-014
lhumerus -18.4563 -56.4847 116.2
lradius 133.661
lwrist 11.4595
lhand -25.7292 302.542
lfingers 7.12502
lthumb 0.80726 -27.4799
rfemur -0.276158 0.28583 11.1276
rtibia -2.38542e-015
rfoot -15.5253 -15.4492
rtoes -9.91805
lfemur -18.6531 1.92854 -16.8029
ltibia 29.3527
lfoot -17.036 3.03264
ltoes -55.8678
952
root 0.229668 18.7408 5.29903 6.96092 0.807015 -0.432361
lowerback 24.1827 -0.615728 0.893225
upperback 9.45001 -0.510773 1.40894
thorax -3.05593 -0.258495 1.14101
lowerneck -19.6134 -2.22187 -1.31315
upperneck 16.8588 -2.8705 1.02464
head 8.51495 -1.32394 0.191423
rclavicle 1.39149e-015 1.98785e-016
rhumerus -11.4221 59.4105 -106.835
rradius 135.513
rwrist 6.2949
rhand -42.2072 -45.4213
rfingers 7.12502
rthumb -15.0948 -74.8509
lclavicle 1.39149e-015 1.98785e-016
lhumerus -19.4397 -57.2899 116.924
lradius 133.71
lwrist 11.0191
lhand -25.1979 300.493
lfingers 7.12502
lthumb 1.32039 -29.5314
rfemur -0.35847 0.356379 11.287
rtibia -6.36111e-015
rfoot -15.6126 -15.4728
rtoes -10.1634
lfemur -18.7254 1.88044 -16.636
ltibia 29.4112
lfoot -16.98 3.11552
ltoes -55.8454
953
root 0.16957 18.739 5.28615 6.95843 0.660681 -0.423208
lowerback 24.2419 -0.641958 0.922378
upperback 9.48426 -0.540813 1.36512
thorax -3.04763 -0.272289 1.08545
lowerneck -19.6643 -2.1857 -1.25399
upperneck 16.8674 -2.79134 0.804982
head 8.52139 -1.30639 0.117272
rclavicle -5.76476e-015 9.14409e-015
rhumerus -12.0059 60.1451 -107.3
rradius 135.438
rwrist 6.28648
rhand -43.4344 -45.4837
rfingers 7.12502
rthumb -16.2767 -74.8205
lclavicle -5.76476e-015 9.14409e-015
lhumerus -19.6709 -56.6566 117.326
lradius 133.775
lwrist 10.4715
lhand -24.3535 299.553
lfingers 7.12502
lthumb 2.13596 -30.4783
rfemur -0.461636 0.506747 11.4533
rtibia 8.74653e-015
rfoot -15.6576 -15.4658
rtoes -9.96053
lfemur -18.7628 1.76358 -16.4286
ltibia 29.4575
lfoot -16.9682 3.35269
ltoes -55.8013
